<svg width="438" height="97" viewBox="0 0 438 97" fill="none" xmlns="http://www.w3.org/2000/svg">
<rect x="41.8983" y="68.8981" width="25.6" height="25.6" rx="4.8" transform="rotate(-45 41.8983 68.8981)" fill="white" style="fill:white;fill-opacity:1;"/>
<path d="M65.6569 51.9274C63.7824 50.0529 63.7824 47.0137 65.6569 45.1392L77.5065 33.2896C79.085 31.7111 81.6444 31.7111 83.2229 33.2896V33.2896C91.6418 41.7085 91.6418 55.3582 83.2229 63.7771V63.7771C81.6444 65.3556 79.085 65.3556 77.5065 63.7771L65.6569 51.9274Z" fill="white" style="fill:white;fill-opacity:1;"/>
<rect x="21.5334" y="48.5333" width="25.6" height="25.6" rx="4.8" transform="rotate(-45 21.5334 48.5333)" fill="white" style="fill:white;fill-opacity:1;"/>
<path d="M44.7565 31.0268C43.178 29.4482 43.178 26.8889 44.7565 25.3104V25.3104C53.1754 16.8915 66.8251 16.8915 75.244 25.3104V25.3104C76.8225 26.8889 76.8225 29.4482 75.244 31.0268L63.3944 42.8764C61.5198 44.7509 58.4807 44.7509 56.6061 42.8764L44.7565 31.0268Z" fill="white" style="fill:white;fill-opacity:1;"/>
<rect x="23.7964" y="48.5333" width="22.4" height="22.4" rx="3.2" transform="rotate(-45 23.7964 48.5333)" fill="url(#paint0_linear_2102_69)" style=""/>
<path d="M45.9207 29.9285C44.9488 28.9565 44.9488 27.3806 45.9207 26.4087V26.4087C53.6965 18.6329 66.3035 18.6329 74.0793 26.4087V26.4087C75.0513 27.3806 75.0513 28.9565 74.0793 29.9285L62.2628 41.745C61.0131 42.9947 58.987 42.9947 57.7373 41.745L45.9207 29.9285Z" fill="url(#paint1_linear_2102_69)" style=""/>
<path d="M66.7884 50.7961C65.5388 49.5464 65.5388 47.5203 66.7884 46.2706L78.605 34.454C79.5769 33.4821 81.1528 33.4821 82.1248 34.454V34.454C89.9006 42.2298 89.9006 54.8368 82.1248 62.6126V62.6126C81.1528 63.5846 79.5769 63.5846 78.605 62.6126L66.7884 50.7961Z" fill="url(#paint2_linear_2102_69)" style=""/>
<rect x="44.1608" y="68.8981" width="22.4" height="22.4" rx="3.2" transform="rotate(-45 44.1608 68.8981)" fill="url(#paint3_linear_2102_69)" style=""/>
<rect x="41.8983" y="68.8981" width="25.6" height="25.6" rx="4.8" transform="rotate(-45 41.8983 68.8981)" fill="white" style="fill:white;fill-opacity:1;"/>
<path d="M65.6569 51.9274C63.7824 50.0529 63.7824 47.0137 65.6569 45.1392L77.5065 33.2896C79.085 31.7111 81.6444 31.7111 83.2229 33.2896V33.2896C91.6418 41.7085 91.6418 55.3582 83.2229 63.7771V63.7771C81.6444 65.3556 79.085 65.3556 77.5065 63.7771L65.6569 51.9274Z" fill="white" style="fill:white;fill-opacity:1;"/>
<rect x="21.5334" y="48.5333" width="25.6" height="25.6" rx="4.8" transform="rotate(-45 21.5334 48.5333)" fill="white" style="fill:white;fill-opacity:1;"/>
<path d="M44.7565 31.0268C43.178 29.4482 43.178 26.8889 44.7565 25.3104V25.3104C53.1754 16.8915 66.8251 16.8915 75.244 25.3104V25.3104C76.8225 26.8889 76.8225 29.4482 75.244 31.0268L63.3944 42.8764C61.5198 44.7509 58.4807 44.7509 56.6061 42.8764L44.7565 31.0268Z" fill="white" style="fill:white;fill-opacity:1;"/>
<rect x="23.7964" y="48.5333" width="22.4" height="22.4" rx="3.2" transform="rotate(-45 23.7964 48.5333)" fill="url(#paint4_linear_2102_69)" style=""/>
<path d="M45.9207 29.9285C44.9488 28.9565 44.9488 27.3806 45.9207 26.4087V26.4087C53.6965 18.6329 66.3035 18.6329 74.0793 26.4087V26.4087C75.0513 27.3806 75.0513 28.9565 74.0793 29.9285L62.2628 41.745C61.0131 42.9947 58.987 42.9947 57.7373 41.745L45.9207 29.9285Z" fill="url(#paint5_linear_2102_69)" style=""/>
<path d="M66.7884 50.7961C65.5388 49.5464 65.5388 47.5203 66.7884 46.2706L78.605 34.454C79.5769 33.4821 81.1528 33.4821 82.1248 34.454V34.454C89.9006 42.2298 89.9006 54.8368 82.1248 62.6126V62.6126C81.1528 63.5846 79.5769 63.5846 78.605 62.6126L66.7884 50.7961Z" fill="url(#paint6_linear_2102_69)" style=""/>
<rect x="44.1608" y="68.8981" width="22.4" height="22.4" rx="3.2" transform="rotate(-45 44.1608 68.8981)" fill="url(#paint7_linear_2102_69)" style=""/>
<path d="M121.06 58.8458C118.883 58.8458 116.967 58.3667 115.31 57.4083C113.665 56.4396 112.378 55.0646 111.451 53.2833C110.534 51.4917 110.076 49.3719 110.076 46.924C110.076 44.4031 110.555 42.2521 111.513 40.4708C112.472 38.6792 113.774 37.3094 115.42 36.3615C117.066 35.4135 118.915 34.9396 120.967 34.9396C122.727 34.9396 124.316 35.2729 125.732 35.9396C127.159 36.6062 128.326 37.5281 129.232 38.7052C130.149 39.8823 130.711 41.2417 130.92 42.7833H125.935C125.612 41.6896 125.034 40.8354 124.201 40.2208C123.368 39.5958 122.316 39.2833 121.045 39.2833C119.263 39.2833 117.821 39.9448 116.717 41.2677C115.612 42.5802 115.06 44.45 115.06 46.8771C115.06 49.3042 115.602 51.1844 116.685 52.5177C117.779 53.8406 119.253 54.5021 121.107 54.5021C122.732 54.5021 124.008 54.0802 124.935 53.2365C125.873 52.3823 126.357 51.2312 126.388 49.7833H121.404V46.0802H131.154V49.0177C131.154 51.0594 130.722 52.8146 129.857 54.2833C128.993 55.7521 127.8 56.8823 126.279 57.674C124.758 58.4552 123.019 58.8458 121.06 58.8458ZM134.842 58.5333V35.2521H150.529V39.3146H139.748V44.7833H149.701V48.7677H139.748V54.4708H150.56V58.5333H134.842ZM173.904 35.2521V58.5333H169.638L159.529 43.8927H159.342V58.5333H154.435V35.2521H158.748L168.795 49.8927H168.998V35.2521H173.904ZM186.592 58.8615C183.769 58.8615 181.513 58.2156 179.826 56.924C178.149 55.6323 177.274 53.7312 177.201 51.2208H181.967C182.05 52.3875 182.508 53.2677 183.342 53.8615C184.185 54.4448 185.248 54.7365 186.529 54.7365C187.779 54.7365 188.779 54.4708 189.529 53.9396C190.29 53.4083 190.67 52.7156 190.67 51.8615C190.67 51.0802 190.326 50.4812 189.638 50.0646C188.951 49.6375 187.972 49.2729 186.701 48.9708L184.154 48.3458C182.196 47.8771 180.649 47.1323 179.513 46.1115C178.388 45.0802 177.826 43.7052 177.826 41.9865C177.826 40.5802 178.206 39.351 178.967 38.299C179.727 37.2365 180.769 36.4135 182.092 35.8302C183.425 35.2365 184.941 34.9396 186.638 34.9396C188.368 34.9396 189.878 35.2365 191.17 35.8302C192.461 36.424 193.467 37.2469 194.185 38.299C194.915 39.351 195.29 40.5646 195.31 41.9396H190.56C190.477 41.0333 190.092 40.325 189.404 39.8146C188.717 39.3042 187.784 39.049 186.607 39.049C185.409 39.049 184.487 39.299 183.842 39.799C183.196 40.2885 182.873 40.9135 182.873 41.674C182.873 42.4969 183.232 43.1219 183.951 43.549C184.67 43.9656 185.534 44.2937 186.545 44.5333L188.623 45.049C189.977 45.351 191.18 45.7937 192.232 46.3771C193.284 46.95 194.112 47.6896 194.717 48.5958C195.321 49.4917 195.623 50.5854 195.623 51.8771C195.623 54.0125 194.826 55.7104 193.232 56.9708C191.638 58.2312 189.425 58.8615 186.592 58.8615ZM202.935 58.5333H197.654L205.701 35.2521H212.029L220.06 58.5333H214.795L213.06 53.2208H204.654L202.935 58.5333ZM205.904 49.3771H211.81L208.951 40.5646H208.763L205.904 49.3771ZM227.748 35.2521V58.5333H222.842V35.2521H227.748ZM239.248 58.5333V35.2521H248.404C250.175 35.2521 251.68 35.5906 252.92 36.2677C254.17 36.9448 255.123 37.8771 255.779 39.0646C256.435 40.2521 256.763 41.6167 256.763 43.1583C256.763 44.7 256.43 46.0594 255.763 47.2365C255.097 48.4135 254.133 49.3354 252.873 50.0021C251.612 50.6583 250.086 50.9865 248.295 50.9865H244.154V58.5333H239.248ZM244.154 47.049H247.482C248.909 47.049 249.967 46.6896 250.654 45.9708C251.352 45.2417 251.701 44.3042 251.701 43.1583C251.701 41.9917 251.352 41.0542 250.654 40.3458C249.956 39.6375 248.894 39.2833 247.467 39.2833H244.154V47.049ZM259.967 58.5333V35.2521H264.873V54.4708H274.857V58.5333H259.967ZM282.154 58.5333H276.873L284.92 35.2521H291.248L299.279 58.5333H294.013L292.279 53.2208H283.873L282.154 58.5333ZM285.123 49.3771H291.029L288.17 40.5646H287.982L285.123 49.3771ZM301.17 39.3146V35.2521H320.279V39.3146H313.185V58.5333H308.279V39.3146H301.17ZM323.467 58.5333V35.2521H338.873V39.3146H328.373V45.7052H337.842V49.6896H328.373V58.5333H323.467ZM352.67 58.8458C350.607 58.8458 348.753 58.3771 347.107 57.4396C345.461 56.5021 344.159 55.1427 343.201 53.3615C342.243 51.5802 341.763 49.4292 341.763 46.9083C341.763 44.3667 342.243 42.2052 343.201 40.424C344.159 38.6427 345.461 37.2833 347.107 36.3458C348.753 35.4083 350.607 34.9396 352.67 34.9396C354.732 34.9396 356.581 35.4083 358.217 36.3458C359.862 37.2833 361.165 38.6427 362.123 40.424C363.081 42.2052 363.56 44.3667 363.56 46.9083C363.56 49.45 363.081 51.6115 362.123 53.3927C361.165 55.1635 359.862 56.5177 358.217 57.4552C356.581 58.3823 354.732 58.8458 352.67 58.8458ZM346.748 46.9083C346.748 49.3667 347.284 51.2469 348.357 52.549C349.441 53.851 350.878 54.5021 352.67 54.5021C354.451 54.5021 355.878 53.851 356.951 52.549C358.034 51.2469 358.576 49.3667 358.576 46.9083C358.576 44.4396 358.034 42.5542 356.951 41.2521C355.878 39.9396 354.451 39.2833 352.67 39.2833C350.878 39.2833 349.441 39.9396 348.357 41.2521C347.284 42.5542 346.748 44.4396 346.748 46.9083ZM367.217 58.5333V35.2521H376.373C379.019 35.2521 381.071 35.9448 382.529 37.3302C383.998 38.7156 384.732 40.5594 384.732 42.8615C384.732 44.4552 384.378 45.8198 383.67 46.9552C382.961 48.0802 381.946 48.924 380.623 49.4865L385.56 58.5333H380.123L375.717 50.2833H372.123V58.5333H367.217ZM372.123 46.3302H375.451C378.263 46.3302 379.67 45.174 379.67 42.8615C379.67 41.7052 379.321 40.8198 378.623 40.2052C377.925 39.5906 376.862 39.2833 375.435 39.2833H372.123V46.3302ZM388.248 35.2521H394.31L400.717 50.8927H400.982L407.404 35.2521H413.513V58.5333H408.685V43.3771H408.513L402.467 58.424H399.201L393.217 43.3458H393.013V58.5333H388.248V35.2521Z" fill="white" style="fill:white;fill-opacity:1;"/>
<path d="M121.06 58.8458C118.883 58.8458 116.967 58.3667 115.31 57.4083C113.665 56.4396 112.378 55.0646 111.451 53.2833C110.534 51.4917 110.076 49.3719 110.076 46.924C110.076 44.4031 110.555 42.2521 111.513 40.4708C112.472 38.6792 113.774 37.3094 115.42 36.3615C117.066 35.4135 118.915 34.9396 120.967 34.9396C122.727 34.9396 124.316 35.2729 125.732 35.9396C127.159 36.6062 128.326 37.5281 129.232 38.7052C130.149 39.8823 130.711 41.2417 130.92 42.7833H125.935C125.612 41.6896 125.034 40.8354 124.201 40.2208C123.368 39.5958 122.316 39.2833 121.045 39.2833C119.263 39.2833 117.821 39.9448 116.717 41.2677C115.612 42.5802 115.06 44.45 115.06 46.8771C115.06 49.3042 115.602 51.1844 116.685 52.5177C117.779 53.8406 119.253 54.5021 121.107 54.5021C122.732 54.5021 124.008 54.0802 124.935 53.2365C125.873 52.3823 126.357 51.2312 126.388 49.7833H121.404V46.0802H131.154V49.0177C131.154 51.0594 130.722 52.8146 129.857 54.2833C128.993 55.7521 127.8 56.8823 126.279 57.674C124.758 58.4552 123.019 58.8458 121.06 58.8458ZM134.842 58.5333V35.2521H150.529V39.3146H139.748V44.7833H149.701V48.7677H139.748V54.4708H150.56V58.5333H134.842ZM173.904 35.2521V58.5333H169.638L159.529 43.8927H159.342V58.5333H154.435V35.2521H158.748L168.795 49.8927H168.998V35.2521H173.904ZM186.592 58.8615C183.769 58.8615 181.513 58.2156 179.826 56.924C178.149 55.6323 177.274 53.7312 177.201 51.2208H181.967C182.05 52.3875 182.508 53.2677 183.342 53.8615C184.185 54.4448 185.248 54.7365 186.529 54.7365C187.779 54.7365 188.779 54.4708 189.529 53.9396C190.29 53.4083 190.67 52.7156 190.67 51.8615C190.67 51.0802 190.326 50.4812 189.638 50.0646C188.951 49.6375 187.972 49.2729 186.701 48.9708L184.154 48.3458C182.196 47.8771 180.649 47.1323 179.513 46.1115C178.388 45.0802 177.826 43.7052 177.826 41.9865C177.826 40.5802 178.206 39.351 178.967 38.299C179.727 37.2365 180.769 36.4135 182.092 35.8302C183.425 35.2365 184.941 34.9396 186.638 34.9396C188.368 34.9396 189.878 35.2365 191.17 35.8302C192.461 36.424 193.467 37.2469 194.185 38.299C194.915 39.351 195.29 40.5646 195.31 41.9396H190.56C190.477 41.0333 190.092 40.325 189.404 39.8146C188.717 39.3042 187.784 39.049 186.607 39.049C185.409 39.049 184.487 39.299 183.842 39.799C183.196 40.2885 182.873 40.9135 182.873 41.674C182.873 42.4969 183.232 43.1219 183.951 43.549C184.67 43.9656 185.534 44.2937 186.545 44.5333L188.623 45.049C189.977 45.351 191.18 45.7937 192.232 46.3771C193.284 46.95 194.112 47.6896 194.717 48.5958C195.321 49.4917 195.623 50.5854 195.623 51.8771C195.623 54.0125 194.826 55.7104 193.232 56.9708C191.638 58.2312 189.425 58.8615 186.592 58.8615ZM202.935 58.5333H197.654L205.701 35.2521H212.029L220.06 58.5333H214.795L213.06 53.2208H204.654L202.935 58.5333ZM205.904 49.3771H211.81L208.951 40.5646H208.763L205.904 49.3771ZM227.748 35.2521V58.5333H222.842V35.2521H227.748ZM239.248 58.5333V35.2521H248.404C250.175 35.2521 251.68 35.5906 252.92 36.2677C254.17 36.9448 255.123 37.8771 255.779 39.0646C256.435 40.2521 256.763 41.6167 256.763 43.1583C256.763 44.7 256.43 46.0594 255.763 47.2365C255.097 48.4135 254.133 49.3354 252.873 50.0021C251.612 50.6583 250.086 50.9865 248.295 50.9865H244.154V58.5333H239.248ZM244.154 47.049H247.482C248.909 47.049 249.967 46.6896 250.654 45.9708C251.352 45.2417 251.701 44.3042 251.701 43.1583C251.701 41.9917 251.352 41.0542 250.654 40.3458C249.956 39.6375 248.894 39.2833 247.467 39.2833H244.154V47.049ZM259.967 58.5333V35.2521H264.873V54.4708H274.857V58.5333H259.967ZM282.154 58.5333H276.873L284.92 35.2521H291.248L299.279 58.5333H294.013L292.279 53.2208H283.873L282.154 58.5333ZM285.123 49.3771H291.029L288.17 40.5646H287.982L285.123 49.3771ZM301.17 39.3146V35.2521H320.279V39.3146H313.185V58.5333H308.279V39.3146H301.17ZM323.467 58.5333V35.2521H338.873V39.3146H328.373V45.7052H337.842V49.6896H328.373V58.5333H323.467ZM352.67 58.8458C350.607 58.8458 348.753 58.3771 347.107 57.4396C345.461 56.5021 344.159 55.1427 343.201 53.3615C342.243 51.5802 341.763 49.4292 341.763 46.9083C341.763 44.3667 342.243 42.2052 343.201 40.424C344.159 38.6427 345.461 37.2833 347.107 36.3458C348.753 35.4083 350.607 34.9396 352.67 34.9396C354.732 34.9396 356.581 35.4083 358.217 36.3458C359.862 37.2833 361.165 38.6427 362.123 40.424C363.081 42.2052 363.56 44.3667 363.56 46.9083C363.56 49.45 363.081 51.6115 362.123 53.3927C361.165 55.1635 359.862 56.5177 358.217 57.4552C356.581 58.3823 354.732 58.8458 352.67 58.8458ZM346.748 46.9083C346.748 49.3667 347.284 51.2469 348.357 52.549C349.441 53.851 350.878 54.5021 352.67 54.5021C354.451 54.5021 355.878 53.851 356.951 52.549C358.034 51.2469 358.576 49.3667 358.576 46.9083C358.576 44.4396 358.034 42.5542 356.951 41.2521C355.878 39.9396 354.451 39.2833 352.67 39.2833C350.878 39.2833 349.441 39.9396 348.357 41.2521C347.284 42.5542 346.748 44.4396 346.748 46.9083ZM367.217 58.5333V35.2521H376.373C379.019 35.2521 381.071 35.9448 382.529 37.3302C383.998 38.7156 384.732 40.5594 384.732 42.8615C384.732 44.4552 384.378 45.8198 383.67 46.9552C382.961 48.0802 381.946 48.924 380.623 49.4865L385.56 58.5333H380.123L375.717 50.2833H372.123V58.5333H367.217ZM372.123 46.3302H375.451C378.263 46.3302 379.67 45.174 379.67 42.8615C379.67 41.7052 379.321 40.8198 378.623 40.2052C377.925 39.5906 376.862 39.2833 375.435 39.2833H372.123V46.3302ZM388.248 35.2521H394.31L400.717 50.8927H400.982L407.404 35.2521H413.513V58.5333H408.685V43.3771H408.513L402.467 58.424H399.201L393.217 43.3458H393.013V58.5333H388.248V35.2521Z" fill="white" style="fill:white;fill-opacity:1;"/>
<defs>
<linearGradient id="paint0_linear_2102_69" x1="46.1964" y1="48.5333" x2="23.7964" y2="70.9333" gradientUnits="userSpaceOnUse">
<stop stop-color="white" style="stop-color:white;stop-opacity:1;"/>
<stop offset="1" stop-color="#1E8DFD" style="stop-color:#1E8DFD;stop-color:color(display-p3 0.1176 0.5529 0.9922);stop-opacity:1;"/>
</linearGradient>
<linearGradient id="paint1_linear_2102_69" x1="60" y1="12.3294" x2="60" y2="44.0078" gradientUnits="userSpaceOnUse">
<stop stop-color="white" style="stop-color:white;stop-opacity:1;"/>
<stop offset="1" stop-color="#1E8DFD" style="stop-color:#1E8DFD;stop-color:color(display-p3 0.1176 0.5529 0.9922);stop-opacity:1;"/>
</linearGradient>
<linearGradient id="paint2_linear_2102_69" x1="80.3649" y1="32.6941" x2="80.3649" y2="64.3725" gradientUnits="userSpaceOnUse">
<stop stop-color="white" style="stop-color:white;stop-opacity:1;"/>
<stop offset="1" stop-color="#1E8DFD" style="stop-color:#1E8DFD;stop-color:color(display-p3 0.1176 0.5529 0.9922);stop-opacity:1;"/>
</linearGradient>
<linearGradient id="paint3_linear_2102_69" x1="66.5608" y1="68.8981" x2="44.1608" y2="91.2981" gradientUnits="userSpaceOnUse">
<stop stop-color="white" style="stop-color:white;stop-opacity:1;"/>
<stop offset="1" stop-color="#1E8DFD" style="stop-color:#1E8DFD;stop-color:color(display-p3 0.1176 0.5529 0.9922);stop-opacity:1;"/>
</linearGradient>
<linearGradient id="paint4_linear_2102_69" x1="46.1964" y1="48.5333" x2="23.7964" y2="70.9333" gradientUnits="userSpaceOnUse">
<stop stop-color="white" style="stop-color:white;stop-opacity:1;"/>
<stop offset="1" stop-color="#1E8DFD" style="stop-color:#1E8DFD;stop-color:color(display-p3 0.1176 0.5529 0.9922);stop-opacity:1;"/>
</linearGradient>
<linearGradient id="paint5_linear_2102_69" x1="60" y1="12.3294" x2="60" y2="44.0078" gradientUnits="userSpaceOnUse">
<stop stop-color="white" style="stop-color:white;stop-opacity:1;"/>
<stop offset="1" stop-color="#1E8DFD" style="stop-color:#1E8DFD;stop-color:color(display-p3 0.1176 0.5529 0.9922);stop-opacity:1;"/>
</linearGradient>
<linearGradient id="paint6_linear_2102_69" x1="80.3649" y1="32.6941" x2="80.3649" y2="64.3725" gradientUnits="userSpaceOnUse">
<stop stop-color="white" style="stop-color:white;stop-opacity:1;"/>
<stop offset="1" stop-color="#1E8DFD" style="stop-color:#1E8DFD;stop-color:color(display-p3 0.1176 0.5529 0.9922);stop-opacity:1;"/>
</linearGradient>
<linearGradient id="paint7_linear_2102_69" x1="66.5608" y1="68.8981" x2="44.1608" y2="91.2981" gradientUnits="userSpaceOnUse">
<stop stop-color="white" style="stop-color:white;stop-opacity:1;"/>
<stop offset="1" stop-color="#1E8DFD" style="stop-color:#1E8DFD;stop-color:color(display-p3 0.1176 0.5529 0.9922);stop-opacity:1;"/>
</linearGradient>
</defs>
</svg>
