<svg width="438" height="138" viewBox="0 0 438 138" fill="none" xmlns="http://www.w3.org/2000/svg">
<rect x="30.3649" y="89.3647" width="25.6" height="25.6" rx="4.8" transform="rotate(-45 30.3649 89.3647)" fill="#1E8DFD" style="fill:#1E8DFD;fill:color(display-p3 0.1176 0.5529 0.9922);fill-opacity:1;"/>
<path d="M54.1235 72.3941C52.249 70.5196 52.249 67.4804 54.1235 65.6059L65.9731 53.7563C67.5516 52.1777 70.111 52.1777 71.6895 53.7563V53.7563C80.1084 62.1751 80.1084 75.8249 71.6895 84.2437V84.2437C70.111 85.8223 67.5516 85.8223 65.9731 84.2437L54.1235 72.3941Z" fill="#1E8DFD" style="fill:#1E8DFD;fill:color(display-p3 0.1176 0.5529 0.9922);fill-opacity:1;"/>
<rect x="10" y="69" width="25.6" height="25.6" rx="4.8" transform="rotate(-45 10 69)" fill="#1E8DFD" style="fill:#1E8DFD;fill:color(display-p3 0.1176 0.5529 0.9922);fill-opacity:1;"/>
<path d="M33.2231 51.4935C31.6446 49.9149 31.6446 47.3556 33.2231 45.7771V45.7771C41.642 37.3582 55.2917 37.3582 63.7106 45.7771V45.7771C65.2891 47.3556 65.2891 49.9149 63.7106 51.4935L51.861 63.3431C49.9865 65.2176 46.9473 65.2176 45.0728 63.3431L33.2231 51.4935Z" fill="#1E8DFD" style="fill:#1E8DFD;fill:color(display-p3 0.1176 0.5529 0.9922);fill-opacity:1;"/>
<rect x="12.263" y="69" width="22.4" height="22.4" rx="3.2" transform="rotate(-45 12.263 69)" fill="url(#paint0_linear_2102_68)" style=""/>
<path d="M34.3874 50.3952C33.4154 49.4232 33.4154 47.8473 34.3874 46.8753V46.8753C42.1631 39.0996 54.7701 39.0996 62.5459 46.8753V46.8753C63.5179 47.8473 63.5179 49.4232 62.5459 50.3952L50.7294 62.2117C49.4797 63.4614 47.4536 63.4614 46.2039 62.2117L34.3874 50.3952Z" fill="url(#paint1_linear_2102_68)" style=""/>
<path d="M55.255 71.2627C54.0054 70.0131 54.0054 67.9869 55.2551 66.7373L67.0716 54.9207C68.0436 53.9487 69.6194 53.9487 70.5914 54.9207V54.9207C78.3672 62.6965 78.3672 75.3035 70.5914 83.0793V83.0793C69.6194 84.0513 68.0436 84.0513 67.0716 83.0793L55.255 71.2627Z" fill="url(#paint2_linear_2102_68)" style=""/>
<rect x="32.6274" y="89.3647" width="22.4" height="22.4" rx="3.2" transform="rotate(-45 32.6274 89.3647)" fill="url(#paint3_linear_2102_68)" style=""/>
<rect x="30.3649" y="89.3647" width="25.6" height="25.6" rx="4.8" transform="rotate(-45 30.3649 89.3647)" fill="#1E8DFD" style="fill:#1E8DFD;fill:color(display-p3 0.1176 0.5529 0.9922);fill-opacity:1;"/>
<path d="M54.1235 72.3941C52.249 70.5196 52.249 67.4804 54.1235 65.6059L65.9731 53.7563C67.5516 52.1777 70.111 52.1777 71.6895 53.7563V53.7563C80.1084 62.1751 80.1084 75.8249 71.6895 84.2437V84.2437C70.111 85.8223 67.5516 85.8223 65.9731 84.2437L54.1235 72.3941Z" fill="#1E8DFD" style="fill:#1E8DFD;fill:color(display-p3 0.1176 0.5529 0.9922);fill-opacity:1;"/>
<rect x="10" y="69" width="25.6" height="25.6" rx="4.8" transform="rotate(-45 10 69)" fill="#1E8DFD" style="fill:#1E8DFD;fill:color(display-p3 0.1176 0.5529 0.9922);fill-opacity:1;"/>
<path d="M33.2231 51.4935C31.6446 49.9149 31.6446 47.3556 33.2231 45.7771V45.7771C41.642 37.3582 55.2917 37.3582 63.7106 45.7771V45.7771C65.2891 47.3556 65.2891 49.9149 63.7106 51.4935L51.861 63.3431C49.9865 65.2176 46.9473 65.2176 45.0728 63.3431L33.2231 51.4935Z" fill="#1E8DFD" style="fill:#1E8DFD;fill:color(display-p3 0.1176 0.5529 0.9922);fill-opacity:1;"/>
<rect x="12.263" y="69" width="22.4" height="22.4" rx="3.2" transform="rotate(-45 12.263 69)" fill="url(#paint4_linear_2102_68)" style=""/>
<path d="M34.3874 50.3952C33.4154 49.4232 33.4154 47.8473 34.3874 46.8753V46.8753C42.1631 39.0996 54.7701 39.0996 62.5459 46.8753V46.8753C63.5179 47.8473 63.5179 49.4232 62.5459 50.3952L50.7294 62.2117C49.4797 63.4614 47.4536 63.4614 46.2039 62.2117L34.3874 50.3952Z" fill="url(#paint5_linear_2102_68)" style=""/>
<path d="M55.255 71.2627C54.0054 70.0131 54.0054 67.9869 55.2551 66.7373L67.0716 54.9207C68.0436 53.9487 69.6194 53.9487 70.5914 54.9207V54.9207C78.3672 62.6965 78.3672 75.3035 70.5914 83.0793V83.0793C69.6194 84.0513 68.0436 84.0513 67.0716 83.0793L55.255 71.2627Z" fill="url(#paint6_linear_2102_68)" style=""/>
<rect x="32.6274" y="89.3647" width="22.4" height="22.4" rx="3.2" transform="rotate(-45 32.6274 89.3647)" fill="url(#paint7_linear_2102_68)" style=""/>
<path d="M109.527 79.3125C107.35 79.3125 105.433 78.8333 103.777 77.875C102.131 76.9062 100.845 75.5312 99.9176 73.75C99.0009 71.9583 98.5426 69.8385 98.5426 67.3906C98.5426 64.8698 99.0218 62.7188 99.9801 60.9375C100.938 59.1458 102.241 57.776 103.886 56.8281C105.532 55.8802 107.381 55.4062 109.433 55.4062C111.194 55.4062 112.782 55.7396 114.199 56.4062C115.626 57.0729 116.793 57.9948 117.699 59.1719C118.616 60.349 119.178 61.7083 119.386 63.25H114.402C114.079 62.1562 113.501 61.3021 112.668 60.6875C111.834 60.0625 110.782 59.75 109.511 59.75C107.73 59.75 106.287 60.4115 105.183 61.7344C104.079 63.0469 103.527 64.9167 103.527 67.3438C103.527 69.7708 104.069 71.651 105.152 72.9844C106.246 74.3073 107.72 74.9688 109.574 74.9688C111.199 74.9688 112.475 74.5469 113.402 73.7031C114.339 72.849 114.824 71.6979 114.855 70.25H109.871V66.5469H119.621V69.4844C119.621 71.526 119.188 73.2812 118.324 74.75C117.459 76.2188 116.267 77.349 114.746 78.1406C113.225 78.9219 111.485 79.3125 109.527 79.3125ZM123.308 79V55.7188H138.996V59.7812H128.214V65.25H138.168V69.2344H128.214V74.9375H139.027V79H123.308ZM162.371 55.7188V79H158.105L147.996 64.3594H147.808V79H142.902V55.7188H147.214L157.261 70.3594H157.464V55.7188H162.371ZM175.058 79.3281C172.235 79.3281 169.98 78.6823 168.293 77.3906C166.616 76.099 165.741 74.1979 165.668 71.6875H170.433C170.517 72.8542 170.975 73.7344 171.808 74.3281C172.652 74.9115 173.714 75.2031 174.996 75.2031C176.246 75.2031 177.246 74.9375 177.996 74.4062C178.756 73.875 179.136 73.1823 179.136 72.3281C179.136 71.5469 178.793 70.9479 178.105 70.5312C177.418 70.1042 176.438 69.7396 175.168 69.4375L172.621 68.8125C170.662 68.3438 169.116 67.599 167.98 66.5781C166.855 65.5469 166.293 64.1719 166.293 62.4531C166.293 61.0469 166.673 59.8177 167.433 58.7656C168.194 57.7031 169.235 56.8802 170.558 56.2969C171.892 55.7031 173.407 55.4062 175.105 55.4062C176.834 55.4062 178.345 55.7031 179.636 56.2969C180.928 56.8906 181.933 57.7135 182.652 58.7656C183.381 59.8177 183.756 61.0312 183.777 62.4062H179.027C178.944 61.5 178.558 60.7917 177.871 60.2812C177.183 59.7708 176.251 59.5156 175.074 59.5156C173.876 59.5156 172.954 59.7656 172.308 60.2656C171.662 60.7552 171.339 61.3802 171.339 62.1406C171.339 62.9635 171.699 63.5885 172.418 64.0156C173.136 64.4323 174.001 64.7604 175.011 65L177.089 65.5156C178.444 65.8177 179.647 66.2604 180.699 66.8438C181.751 67.4167 182.579 68.1562 183.183 69.0625C183.787 69.9583 184.089 71.0521 184.089 72.3438C184.089 74.4792 183.293 76.1771 181.699 77.4375C180.105 78.6979 177.892 79.3281 175.058 79.3281ZM191.402 79H186.121L194.168 55.7188H200.496L208.527 79H203.261L201.527 73.6875H193.121L191.402 79ZM194.371 69.8438H200.277L197.418 61.0312H197.23L194.371 69.8438ZM216.214 55.7188V79H211.308V55.7188H216.214ZM227.714 79V55.7188H236.871C238.642 55.7188 240.147 56.0573 241.386 56.7344C242.636 57.4115 243.589 58.3438 244.246 59.5312C244.902 60.7188 245.23 62.0833 245.23 63.625C245.23 65.1667 244.897 66.526 244.23 67.7031C243.563 68.8802 242.6 69.8021 241.339 70.4688C240.079 71.125 238.553 71.4531 236.761 71.4531H232.621V79H227.714ZM232.621 67.5156H235.949C237.376 67.5156 238.433 67.1562 239.121 66.4375C239.819 65.7083 240.168 64.7708 240.168 63.625C240.168 62.4583 239.819 61.5208 239.121 60.8125C238.423 60.1042 237.36 59.75 235.933 59.75H232.621V67.5156ZM248.433 79V55.7188H253.339V74.9375H263.324V79H248.433ZM270.621 79H265.339L273.386 55.7188H279.714L287.746 79H282.48L280.746 73.6875H272.339L270.621 79ZM273.589 69.8438H279.496L276.636 61.0312H276.449L273.589 69.8438ZM289.636 59.7812V55.7188H308.746V59.7812H301.652V79H296.746V59.7812H289.636ZM311.933 79V55.7188H327.339V59.7812H316.839V66.1719H326.308V70.1562H316.839V79H311.933ZM341.136 79.3125C339.074 79.3125 337.22 78.8438 335.574 77.9062C333.928 76.9688 332.626 75.6094 331.668 73.8281C330.709 72.0469 330.23 69.8958 330.23 67.375C330.23 64.8333 330.709 62.6719 331.668 60.8906C332.626 59.1094 333.928 57.75 335.574 56.8125C337.22 55.875 339.074 55.4062 341.136 55.4062C343.199 55.4062 345.048 55.875 346.683 56.8125C348.329 57.75 349.631 59.1094 350.589 60.8906C351.548 62.6719 352.027 64.8333 352.027 67.375C352.027 69.9167 351.548 72.0781 350.589 73.8594C349.631 75.6302 348.329 76.9844 346.683 77.9219C345.048 78.849 343.199 79.3125 341.136 79.3125ZM335.214 67.375C335.214 69.8333 335.751 71.7135 336.824 73.0156C337.907 74.3177 339.345 74.9688 341.136 74.9688C342.918 74.9688 344.345 74.3177 345.418 73.0156C346.501 71.7135 347.043 69.8333 347.043 67.375C347.043 64.9062 346.501 63.0208 345.418 61.7188C344.345 60.4062 342.918 59.75 341.136 59.75C339.345 59.75 337.907 60.4062 336.824 61.7188C335.751 63.0208 335.214 64.9062 335.214 67.375ZM355.683 79V55.7188H364.839C367.485 55.7188 369.537 56.4115 370.996 57.7969C372.464 59.1823 373.199 61.026 373.199 63.3281C373.199 64.9219 372.845 66.2865 372.136 67.4219C371.428 68.5469 370.412 69.3906 369.089 69.9531L374.027 79H368.589L364.183 70.75H360.589V79H355.683ZM360.589 66.7969H363.918C366.73 66.7969 368.136 65.6406 368.136 63.3281C368.136 62.1719 367.787 61.2865 367.089 60.6719C366.392 60.0573 365.329 59.75 363.902 59.75H360.589V66.7969ZM376.714 55.7188H382.777L389.183 71.3594H389.449L395.871 55.7188H401.98V79H397.152V63.8438H396.98L390.933 78.8906H387.668L381.683 63.8125H381.48V79H376.714V55.7188Z" fill="#1E8DFD" style="fill:#1E8DFD;fill:color(display-p3 0.1176 0.5529 0.9922);fill-opacity:1;"/>
<path d="M109.527 79.3125C107.35 79.3125 105.433 78.8333 103.777 77.875C102.131 76.9062 100.845 75.5312 99.9176 73.75C99.0009 71.9583 98.5426 69.8385 98.5426 67.3906C98.5426 64.8698 99.0218 62.7188 99.9801 60.9375C100.938 59.1458 102.241 57.776 103.886 56.8281C105.532 55.8802 107.381 55.4062 109.433 55.4062C111.194 55.4062 112.782 55.7396 114.199 56.4062C115.626 57.0729 116.793 57.9948 117.699 59.1719C118.616 60.349 119.178 61.7083 119.386 63.25H114.402C114.079 62.1562 113.501 61.3021 112.668 60.6875C111.834 60.0625 110.782 59.75 109.511 59.75C107.73 59.75 106.287 60.4115 105.183 61.7344C104.079 63.0469 103.527 64.9167 103.527 67.3438C103.527 69.7708 104.069 71.651 105.152 72.9844C106.246 74.3073 107.72 74.9688 109.574 74.9688C111.199 74.9688 112.475 74.5469 113.402 73.7031C114.339 72.849 114.824 71.6979 114.855 70.25H109.871V66.5469H119.621V69.4844C119.621 71.526 119.188 73.2812 118.324 74.75C117.459 76.2188 116.267 77.349 114.746 78.1406C113.225 78.9219 111.485 79.3125 109.527 79.3125ZM123.308 79V55.7188H138.996V59.7812H128.214V65.25H138.168V69.2344H128.214V74.9375H139.027V79H123.308ZM162.371 55.7188V79H158.105L147.996 64.3594H147.808V79H142.902V55.7188H147.214L157.261 70.3594H157.464V55.7188H162.371ZM175.058 79.3281C172.235 79.3281 169.98 78.6823 168.293 77.3906C166.616 76.099 165.741 74.1979 165.668 71.6875H170.433C170.517 72.8542 170.975 73.7344 171.808 74.3281C172.652 74.9115 173.714 75.2031 174.996 75.2031C176.246 75.2031 177.246 74.9375 177.996 74.4062C178.756 73.875 179.136 73.1823 179.136 72.3281C179.136 71.5469 178.793 70.9479 178.105 70.5312C177.418 70.1042 176.438 69.7396 175.168 69.4375L172.621 68.8125C170.662 68.3438 169.116 67.599 167.98 66.5781C166.855 65.5469 166.293 64.1719 166.293 62.4531C166.293 61.0469 166.673 59.8177 167.433 58.7656C168.194 57.7031 169.235 56.8802 170.558 56.2969C171.892 55.7031 173.407 55.4062 175.105 55.4062C176.834 55.4062 178.345 55.7031 179.636 56.2969C180.928 56.8906 181.933 57.7135 182.652 58.7656C183.381 59.8177 183.756 61.0312 183.777 62.4062H179.027C178.944 61.5 178.558 60.7917 177.871 60.2812C177.183 59.7708 176.251 59.5156 175.074 59.5156C173.876 59.5156 172.954 59.7656 172.308 60.2656C171.662 60.7552 171.339 61.3802 171.339 62.1406C171.339 62.9635 171.699 63.5885 172.418 64.0156C173.136 64.4323 174.001 64.7604 175.011 65L177.089 65.5156C178.444 65.8177 179.647 66.2604 180.699 66.8438C181.751 67.4167 182.579 68.1562 183.183 69.0625C183.787 69.9583 184.089 71.0521 184.089 72.3438C184.089 74.4792 183.293 76.1771 181.699 77.4375C180.105 78.6979 177.892 79.3281 175.058 79.3281ZM191.402 79H186.121L194.168 55.7188H200.496L208.527 79H203.261L201.527 73.6875H193.121L191.402 79ZM194.371 69.8438H200.277L197.418 61.0312H197.23L194.371 69.8438ZM216.214 55.7188V79H211.308V55.7188H216.214ZM227.714 79V55.7188H236.871C238.642 55.7188 240.147 56.0573 241.386 56.7344C242.636 57.4115 243.589 58.3438 244.246 59.5312C244.902 60.7188 245.23 62.0833 245.23 63.625C245.23 65.1667 244.897 66.526 244.23 67.7031C243.563 68.8802 242.6 69.8021 241.339 70.4688C240.079 71.125 238.553 71.4531 236.761 71.4531H232.621V79H227.714ZM232.621 67.5156H235.949C237.376 67.5156 238.433 67.1562 239.121 66.4375C239.819 65.7083 240.168 64.7708 240.168 63.625C240.168 62.4583 239.819 61.5208 239.121 60.8125C238.423 60.1042 237.36 59.75 235.933 59.75H232.621V67.5156ZM248.433 79V55.7188H253.339V74.9375H263.324V79H248.433ZM270.621 79H265.339L273.386 55.7188H279.714L287.746 79H282.48L280.746 73.6875H272.339L270.621 79ZM273.589 69.8438H279.496L276.636 61.0312H276.449L273.589 69.8438ZM289.636 59.7812V55.7188H308.746V59.7812H301.652V79H296.746V59.7812H289.636ZM311.933 79V55.7188H327.339V59.7812H316.839V66.1719H326.308V70.1562H316.839V79H311.933ZM341.136 79.3125C339.074 79.3125 337.22 78.8438 335.574 77.9062C333.928 76.9688 332.626 75.6094 331.668 73.8281C330.709 72.0469 330.23 69.8958 330.23 67.375C330.23 64.8333 330.709 62.6719 331.668 60.8906C332.626 59.1094 333.928 57.75 335.574 56.8125C337.22 55.875 339.074 55.4062 341.136 55.4062C343.199 55.4062 345.048 55.875 346.683 56.8125C348.329 57.75 349.631 59.1094 350.589 60.8906C351.548 62.6719 352.027 64.8333 352.027 67.375C352.027 69.9167 351.548 72.0781 350.589 73.8594C349.631 75.6302 348.329 76.9844 346.683 77.9219C345.048 78.849 343.199 79.3125 341.136 79.3125ZM335.214 67.375C335.214 69.8333 335.751 71.7135 336.824 73.0156C337.907 74.3177 339.345 74.9688 341.136 74.9688C342.918 74.9688 344.345 74.3177 345.418 73.0156C346.501 71.7135 347.043 69.8333 347.043 67.375C347.043 64.9062 346.501 63.0208 345.418 61.7188C344.345 60.4062 342.918 59.75 341.136 59.75C339.345 59.75 337.907 60.4062 336.824 61.7188C335.751 63.0208 335.214 64.9062 335.214 67.375ZM355.683 79V55.7188H364.839C367.485 55.7188 369.537 56.4115 370.996 57.7969C372.464 59.1823 373.199 61.026 373.199 63.3281C373.199 64.9219 372.845 66.2865 372.136 67.4219C371.428 68.5469 370.412 69.3906 369.089 69.9531L374.027 79H368.589L364.183 70.75H360.589V79H355.683ZM360.589 66.7969H363.918C366.73 66.7969 368.136 65.6406 368.136 63.3281C368.136 62.1719 367.787 61.2865 367.089 60.6719C366.392 60.0573 365.329 59.75 363.902 59.75H360.589V66.7969ZM376.714 55.7188H382.777L389.183 71.3594H389.449L395.871 55.7188H401.98V79H397.152V63.8438H396.98L390.933 78.8906H387.668L381.683 63.8125H381.48V79H376.714V55.7188Z" fill="#1E8DFD" style="fill:#1E8DFD;fill:color(display-p3 0.1176 0.5529 0.9922);fill-opacity:1;"/>
<defs>
<linearGradient id="paint0_linear_2102_68" x1="34.663" y1="69" x2="12.263" y2="91.4" gradientUnits="userSpaceOnUse">
<stop stop-color="#56AAFF" style="stop-color:#56AAFF;stop-color:color(display-p3 0.3358 0.6664 1.0000);stop-opacity:1;"/>
<stop offset="1" stop-color="#1E8DFD" style="stop-color:#1E8DFD;stop-color:color(display-p3 0.1176 0.5529 0.9922);stop-opacity:1;"/>
</linearGradient>
<linearGradient id="paint1_linear_2102_68" x1="48.4666" y1="32.7961" x2="48.4666" y2="64.4744" gradientUnits="userSpaceOnUse">
<stop stop-color="#56AAFF" style="stop-color:#56AAFF;stop-color:color(display-p3 0.3358 0.6664 1.0000);stop-opacity:1;"/>
<stop offset="1" stop-color="#1E8DFD" style="stop-color:#1E8DFD;stop-color:color(display-p3 0.1176 0.5529 0.9922);stop-opacity:1;"/>
</linearGradient>
<linearGradient id="paint2_linear_2102_68" x1="68.8315" y1="53.1608" x2="68.8315" y2="84.8392" gradientUnits="userSpaceOnUse">
<stop stop-color="#56AAFF" style="stop-color:#56AAFF;stop-color:color(display-p3 0.3358 0.6664 1.0000);stop-opacity:1;"/>
<stop offset="1" stop-color="#1E8DFD" style="stop-color:#1E8DFD;stop-color:color(display-p3 0.1176 0.5529 0.9922);stop-opacity:1;"/>
</linearGradient>
<linearGradient id="paint3_linear_2102_68" x1="55.0274" y1="89.3647" x2="32.6274" y2="111.765" gradientUnits="userSpaceOnUse">
<stop stop-color="#56AAFF" style="stop-color:#56AAFF;stop-color:color(display-p3 0.3358 0.6664 1.0000);stop-opacity:1;"/>
<stop offset="1" stop-color="#1E8DFD" style="stop-color:#1E8DFD;stop-color:color(display-p3 0.1176 0.5529 0.9922);stop-opacity:1;"/>
</linearGradient>
<linearGradient id="paint4_linear_2102_68" x1="34.663" y1="69" x2="12.263" y2="91.4" gradientUnits="userSpaceOnUse">
<stop stop-color="#56AAFF" style="stop-color:#56AAFF;stop-color:color(display-p3 0.3358 0.6664 1.0000);stop-opacity:1;"/>
<stop offset="1" stop-color="#1E8DFD" style="stop-color:#1E8DFD;stop-color:color(display-p3 0.1176 0.5529 0.9922);stop-opacity:1;"/>
</linearGradient>
<linearGradient id="paint5_linear_2102_68" x1="48.4666" y1="32.7961" x2="48.4666" y2="64.4744" gradientUnits="userSpaceOnUse">
<stop stop-color="#56AAFF" style="stop-color:#56AAFF;stop-color:color(display-p3 0.3358 0.6664 1.0000);stop-opacity:1;"/>
<stop offset="1" stop-color="#1E8DFD" style="stop-color:#1E8DFD;stop-color:color(display-p3 0.1176 0.5529 0.9922);stop-opacity:1;"/>
</linearGradient>
<linearGradient id="paint6_linear_2102_68" x1="68.8315" y1="53.1608" x2="68.8315" y2="84.8392" gradientUnits="userSpaceOnUse">
<stop stop-color="#56AAFF" style="stop-color:#56AAFF;stop-color:color(display-p3 0.3358 0.6664 1.0000);stop-opacity:1;"/>
<stop offset="1" stop-color="#1E8DFD" style="stop-color:#1E8DFD;stop-color:color(display-p3 0.1176 0.5529 0.9922);stop-opacity:1;"/>
</linearGradient>
<linearGradient id="paint7_linear_2102_68" x1="55.0274" y1="89.3647" x2="32.6274" y2="111.765" gradientUnits="userSpaceOnUse">
<stop stop-color="#56AAFF" style="stop-color:#56AAFF;stop-color:color(display-p3 0.3358 0.6664 1.0000);stop-opacity:1;"/>
<stop offset="1" stop-color="#1E8DFD" style="stop-color:#1E8DFD;stop-color:color(display-p3 0.1176 0.5529 0.9922);stop-opacity:1;"/>
</linearGradient>
</defs>
</svg>
